<svg xmlns="http://www.w3.org/2000/svg" viewBox="-20 -34 340 340">
  <rect x="-20" y="-34" width="340" height="340" rx="46" fill="#1A1836"/>
  <g fill="#CF0000">
    <path d="M110.4,147.1c0,22.5,18.2,40.7,40.7,40.7c22.5,0,40.8-18.2,40.8-40.7c0-22.5-18.3-40.8-40.8-40.8C128.6,106.4,110.4,124.6,110.4,147.1z"/>
    <path d="M190.4,20.2C168.2-2.4,138.6-2.8,113,19L68.3,61.6H4.8v53h66.1c18.5-0.4,28.9-7.4,41.8-20.3L150.8,58l61,61.7l39.6-37.5L190.4,20.2z"/>
    <path d="M111.1,274c22.2,22.6,51.8,22.9,77.3,1.1l44.7-42.5h63.5v-53h-66.1c-18.5,0.4-28.9,7.4-41.8,20.3l-38.1,36.3l-61-61.7L50.2,212L111.1,274z"/>
  </g>
</svg>
