<?xml version="1.0" encoding="utf-8"?>
<!-- Generator: Adobe Illustrator 25.2.3, SVG Export Plug-In . SVG Version: 6.00 Build 0)  -->
<svg version="1.1" id="Logo" xmlns="http://www.w3.org/2000/svg" xmlns:xlink="http://www.w3.org/1999/xlink" x="0px" y="0px"
	 viewBox="0 0 1589.7 294.3" style="enable-background:new 0 0 1589.7 294.3;" xml:space="preserve">
<style type="text/css">
	.st0{fill:#CF0000;}
	.st1{fill:#FFFFFF;}
</style>
<g>
	<path class="st0" d="M110.4,147.1c0,22.5,18.2,40.7,40.7,40.7c22.5,0,40.8-18.2,40.8-40.7c0-22.5-18.3-40.8-40.8-40.8
		C128.6,106.4,110.4,124.6,110.4,147.1z"/>
	<path class="st0" d="M190.4,20.2C168.2-2.4,138.6-2.8,113,19L68.3,61.6H4.8v53h66.1c18.5-0.4,28.9-7.4,41.8-20.3L150.8,58l61,61.7
		l39.6-37.5L190.4,20.2z"/>
	<path class="st0" d="M111.1,274c22.2,22.6,51.8,22.9,77.3,1.1l44.7-42.5h63.5v-53h-66.1c-18.5,0.4-28.9,7.4-41.8,20.3l-38.1,36.3
		l-61-61.7L50.2,212L111.1,274z"/>
</g>
<g>
	<path class="st1" d="M374.5,197.4v-107h81.9v23.8h-50.8v19.4h45.3v23.5h-45.3v40.2H374.5z"/>
	<path class="st1" d="M545.5,165.3h-56.3c0.2,10.4,4.4,16.4,14.1,16.4c7.9,0,11.8-4,13-10.9l28.4,2.3c-4.3,17.4-19.4,26.6-41.6,26.6
		c-13.5,0-24-4-31.2-10.5c-7.8-7.2-11.8-17.6-11.8-30.6c0-12.5,3.8-22.9,11.8-30.1c7.3-6.9,17.7-10.5,30.9-10.5
		c14.1,0,24.9,4.3,32.1,11.9C542.6,138,545.8,149.7,545.5,165.3z M492.3,140.4c-1.5,2-2.4,4.7-2.9,7.9h26.9
		c-0.5-3.7-1.4-6.6-3.2-8.7c-2.1-2.8-5.2-3.8-9.9-3.8C498.1,135.8,494.8,137.2,492.3,140.4z"/>
	<path class="st1" d="M588.2,90.4v107H559v-107H588.2z"/>
	<path class="st1" d="M634.2,90.4v107H605v-107H634.2z"/>
	<path class="st1" d="M732.8,165.3h-56.3c0.2,10.4,4.4,16.4,14.1,16.4c7.9,0,11.8-4,13-10.9l28.4,2.3c-4.3,17.4-19.4,26.6-41.6,26.6
		c-13.5,0-24-4-31.2-10.5c-7.8-7.2-11.8-17.6-11.8-30.6c0-12.5,3.8-22.9,11.8-30.1c7.3-6.9,17.7-10.5,30.9-10.5
		c14.1,0,24.9,4.3,32.1,11.9C729.9,138,733.1,149.7,732.8,165.3z M679.6,140.4c-1.5,2-2.4,4.7-2.9,7.9h26.9
		c-0.5-3.7-1.4-6.6-3.2-8.7c-2.1-2.8-5.2-3.8-9.9-3.8C685.4,135.8,682,137.2,679.6,140.4z"/>
	<path class="st1" d="M741.8,174.7l28.3-3.1c-0.2,8.6,5.4,11.6,12.4,11.6c7.2,0,11-2.3,11-6.9c0-4.1-4.9-5.2-17.1-7.8
		c-17.6-3.8-32.3-8.3-32.3-25.5c0-18,17.3-25.1,37-25.1c19.6,0,35.8,5.4,38.1,23.5l-26.8,3.7c-0.2-8.3-4.7-11-11.2-11
		c-5.4,0-9.5,1.8-9.5,6.3c0,4.1,4.9,5.2,15.1,7.2c18,3.8,34.9,7.8,34.9,26.9c0,19.4-18.8,25.2-39.6,25.2
		C761.7,199.7,743.8,193.2,741.8,174.7z"/>
	<path class="st1" d="M840.3,197.4v-57.2h-11v-20h11v-6.6c0-19,10.2-25.4,30.9-25.4c4.6,0,10.1,0.6,12.4,1.1l-0.3,20.5
		c-2.4-0.5-5.5-0.8-7.3-0.8c-5,0-7.2,1.2-7.2,5.8v5.4h15.1v20h-15v57.2H840.3z"/>
	<path class="st1" d="M890.4,158.8c0-25.2,17.1-40.8,43.6-40.8c26.1,0,43.4,16.1,43.4,40.8c0,24.9-17.6,41-43.4,41
		C907.4,199.7,890.4,184.6,890.4,158.8z M942.7,177c2.8-3.2,3.7-9.2,3.7-18.2c0-9-1.1-14.8-3.5-17.9c-2.1-2.8-5-3.7-8.9-3.7
		c-4.1,0-7,1.1-9.2,3.5c-2.4,3.2-3.5,8.9-3.5,18c0,9.2,1.1,15.1,3.7,18.2c2,2.3,4.9,3.5,9,3.5C938,180.5,940.9,179.4,942.7,177z"/>
	<path class="st1" d="M1047.1,118.4l-0.6,26c-1.2-0.2-2.9-0.3-4.7-0.3c-13.8,0-21.7,6.3-21.7,24.2v29.2h-29.4v-77.2h28.4V136
		c3.4-11.2,10.9-16.8,24-17.4C1044,118.4,1045.9,118.4,1047.1,118.4z"/>
	<path class="st1" d="M1143.1,158.5c0,25.4-12.7,41.3-33.8,41.3c-9.9,0-18.3-5.2-22.5-12.5v10.2h-28.7v-107h28.7v39.1
		c4.6-7.2,12.8-11.8,22.9-11.8C1130,117.8,1143.1,133.8,1143.1,158.5z M1112.1,158.6c0-14.8-2.9-21.2-12.7-21.2c-4,0-6.9,1.2-9,3.8
		c-2.6,3.5-4,9.2-4,17.6c0,14.2,3.8,21.4,12.8,21.4c3.7,0,6.4-0.8,8.4-3.1C1110.8,173.9,1112.1,167.9,1112.1,158.6z"/>
	<path class="st1" d="M1206.7,120.2h29.2v77.2h-28.3v-10.9c-4.1,8.3-11.5,13.1-22.9,13.1c-9.5,0-16.2-2.6-21.6-8.3
		c-5.7-5.8-7-14.8-7-26.3v-44.9h29.7v44.2c0,5.2,0.3,8.6,2.4,11.2c2.1,2.3,4.6,2.6,7.8,2.6c5.8,0,10.7-4.3,10.7-15.7V120.2z"/>
	<path class="st1" d="M1332.8,149.9v47.5h-29.5v-44.6c0-5.5-0.3-8.7-2.8-11c-2.1-1.8-4.1-2.3-7.5-2.3c-5.4,0-11,3.7-11,15.7v42.2
		h-29.4v-77.2h28.7v11.3c3.8-8.9,12.2-13.6,24-13.6c9.2,0,15.3,2.1,20,6.7C1331.3,130.3,1332.8,138.7,1332.8,149.9z"/>
	<path class="st1" d="M1398.7,90.4h28.7v107h-28.7v-9.9c-4.1,8.3-11.9,12.2-22,12.2c-20.8,0-33.9-15.7-33.9-41.3
		c0-24.5,13.6-40.5,33.9-40.5c10.1,0,17.6,3.8,22,11V90.4z M1395,176.7c2.9-3.7,4.1-9.6,4.1-17.9c0-14.4-3.4-21.6-12.5-21.6
		c-4.4,0-7.5,1.2-9.5,4c-2.6,3.4-3.4,9-3.4,17.3c0,15.4,2.6,21.7,12.5,21.7C1390.1,180.2,1392.9,179.1,1395,176.7z"/>
	<path class="st1" d="M1523.3,165.3H1467c0.2,10.4,4.4,16.4,14.1,16.4c7.9,0,11.8-4,13-10.9l28.4,2.3c-4.3,17.4-19.4,26.6-41.6,26.6
		c-13.5,0-24-4-31.2-10.5c-7.8-7.2-11.8-17.6-11.8-30.6c0-12.5,3.8-22.9,11.8-30.1c7.3-6.9,17.7-10.5,30.9-10.5
		c14.1,0,24.9,4.3,32.1,11.9C1520.4,138,1523.6,149.7,1523.3,165.3z M1470.1,140.4c-1.5,2-2.4,4.7-2.9,7.9h26.9
		c-0.5-3.7-1.4-6.6-3.2-8.7c-2.1-2.8-5.2-3.8-9.9-3.8C1475.9,135.8,1472.5,137.2,1470.1,140.4z"/>
	<path class="st1" d="M1541.3,173.4v-33.2h-11v-20h11V98.1h28.6v22.2h15.4v20h-15.4v29.7c0,4.6,2.9,5.7,7.6,5.7
		c2.1,0,4.9-0.3,7.2-0.9l0.6,22.3c-4.1,1.1-9.5,1.4-13.9,1.4C1553.4,198.4,1541.3,192.4,1541.3,173.4z"/>
</g>
</svg>
